<svg width="26" height="26" viewBox="0 0 26 26" fill="none" xmlns="http://www.w3.org/2000/svg">
<path d="M13 18C15.7614 18 18 15.7614 18 13C18 10.2386 15.7614 8 13 8C10.2386 8 8 10.2386 8 13C8 15.7614 10.2386 18 13 18Z" stroke="black" stroke-width="2" stroke-miterlimit="10"/>
<path d="M18.5 1.5H7.5C4.18629 1.5 1.5 4.18629 1.5 7.5V18.5C1.5 21.8137 4.18629 24.5 7.5 24.5H18.5C21.8137 24.5 24.5 21.8137 24.5 18.5V7.5C24.5 4.18629 21.8137 1.5 18.5 1.5Z" stroke="black" stroke-width="2" stroke-linecap="round" stroke-linejoin="round"/>
<path d="M19.5 8C20.3284 8 21 7.32843 21 6.5C21 5.67157 20.3284 5 19.5 5C18.6716 5 18 5.67157 18 6.5C18 7.32843 18.6716 8 19.5 8Z" fill="black"/>
</svg>
