<svg width="26" height="26" viewBox="0 0 26 26" fill="none" xmlns="http://www.w3.org/2000/svg">
<path d="M13 10V13H3.99999C3.20434 13 2.44128 12.6839 1.87867 12.1213C1.31606 11.5587 0.999994 10.7956 0.999994 10C0.999994 9.20435 1.31606 8.44129 1.87867 7.87868C2.44128 7.31607 3.20434 7 3.99999 7L10 7C10.7956 7 11.5587 7.31607 12.1213 7.87868C12.6839 8.44129 13 9.20435 13 10H13Z" stroke="black" stroke-width="2" stroke-linecap="round" stroke-linejoin="round"/>
<path d="M13 7H10C9.20435 7 8.44129 6.68393 7.87868 6.12132C7.31607 5.55871 7 4.79565 7 4C7 3.20435 7.31607 2.44129 7.87868 1.87868C8.44129 1.31607 9.20435 1 10 1V1C10.7956 1 11.5587 1.31607 12.1213 1.87868C12.6839 2.44129 13 3.20435 13 4V7Z" stroke="black" stroke-width="2" stroke-linecap="round" stroke-linejoin="round"/>
<path d="M16 13H13V3.99999C13 3.20434 13.3161 2.44128 13.8787 1.87867C14.4413 1.31606 15.2044 0.99999 16 0.99999C16.7956 0.99999 17.5587 1.31606 18.1213 1.87867C18.6839 2.44128 19 3.20434 19 3.99999V10C19 10.7956 18.6839 11.5587 18.1213 12.1213C17.5587 12.6839 16.7956 13 16 13V13Z" stroke="black" stroke-width="2" stroke-linecap="round" stroke-linejoin="round"/>
<path d="M19 13V10C19 9.20435 19.3161 8.44129 19.8787 7.87868C20.4413 7.31607 21.2044 7 22 7V7C22.7956 7 23.5587 7.31607 24.1213 7.87868C24.6839 8.44129 25 9.20435 25 10V10C25 10.7956 24.6839 11.5587 24.1213 12.1213C23.5587 12.6839 22.7956 13 22 13H19Z" stroke="black" stroke-width="2" stroke-linecap="round" stroke-linejoin="round"/>
<path d="M13 16V13H22C22.7957 13 23.5587 13.3161 24.1213 13.8787C24.6839 14.4413 25 15.2044 25 16V16C25 16.7956 24.6839 17.5587 24.1213 18.1213C23.5587 18.6839 22.7957 19 22 19H16C15.2044 19 14.4413 18.6839 13.8787 18.1213C13.3161 17.5587 13 16.7956 13 16H13Z" stroke="black" stroke-width="2" stroke-linecap="round" stroke-linejoin="round"/>
<path d="M13 19H16C16.7956 19 17.5587 19.3161 18.1213 19.8787C18.6839 20.4413 19 21.2044 19 22V22C19 22.7956 18.6839 23.5587 18.1213 24.1213C17.5587 24.6839 16.7956 25 16 25V25C15.2044 25 14.4413 24.6839 13.8787 24.1213C13.3161 23.5587 13 22.7956 13 22V19Z" stroke="black" stroke-width="2" stroke-linecap="round" stroke-linejoin="round"/>
<path d="M10 13H13V22C13 22.7956 12.6839 23.5587 12.1213 24.1213C11.5587 24.6839 10.7956 25 10 25V25C9.20435 25 8.44129 24.6839 7.87868 24.1213C7.31607 23.5587 7 22.7956 7 22V16C7 15.2044 7.31607 14.4413 7.87868 13.8787C8.44129 13.3161 9.20435 13 10 13V13Z" stroke="black" stroke-width="2" stroke-linecap="round" stroke-linejoin="round"/>
<path d="M7 13V16C7 16.7956 6.68393 17.5587 6.12132 18.1213C5.55871 18.6839 4.79565 19 4 19C3.20435 19 2.44129 18.6839 1.87868 18.1213C1.31607 17.5587 1 16.7956 1 16V16C1 15.2044 1.31607 14.4413 1.87868 13.8787C2.44129 13.3161 3.20435 13 4 13H7Z" stroke="black" stroke-width="2" stroke-linecap="round" stroke-linejoin="round"/>
</svg>
