<svg width="30" height="25" viewBox="0 0 30 25" fill="none" xmlns="http://www.w3.org/2000/svg">
<path d="M29.0005 4.58268C27.9119 6.14125 26.5536 7.49287 24.9898 8.57389L24.9897 8.57387C24.8908 11.3077 24.0928 13.9706 22.6719 16.3083C21.2509 18.6459 19.2545 20.5804 16.8732 21.9269C14.4919 23.2735 11.8053 23.9872 9.06964 24C6.33402 24.0127 3.6408 23.324 1.24707 21.9997L1.24788 21.9982C4.37369 21.9549 7.41759 20.9924 9.99999 19.2307L9.99989 19.2308C7.23553 17.3467 5.1301 14.6447 3.97878 11.5037C2.82746 8.36269 2.68798 4.94011 3.5799 1.71582L3.57985 1.71585C4.85731 3.68317 6.55176 5.34551 8.54316 6.5851C10.5346 7.82469 12.7742 8.6112 15.1034 8.88891L15.103 8.88898C14.8577 7.71974 15.0391 6.50132 15.6144 5.45423C16.1896 4.40714 17.1207 3.60056 18.239 3.18046C19.3574 2.76037 20.5893 2.75452 21.7116 3.16397C22.834 3.57341 23.7726 4.37111 24.3578 5.41269L24.3578 5.41324C25.9378 5.36609 27.5022 5.08623 29.0005 4.58268" stroke="black" stroke-width="2" stroke-linecap="round" stroke-linejoin="round"/>
</svg>
