<svg width="150" height="150" viewBox="0 0 150 150" fill="none" xmlns="http://www.w3.org/2000/svg">
<path fill-rule="evenodd" clip-rule="evenodd" d="M146.243 138.734V142.49H142.487V138.734H138.73V134.979H134.973V131.224H131.217V127.469H127.46V123.713H123.703V119.958H119.947V116.203H116.19V112.448H112.433V108.693H108.677V104.937H104.92V101.182H101.163V97.427H104.92V89.9833H108.677V86.4451H112.433V82.6898H116.19V78.9346H119.947V75.1794H123.703V63.9138H119.947V60.1586H116.19V56.4033H108.677V52.6481H74.8664V48.8929H71.1097V45.1377H67.3531V41.3825H63.5964V37.6273H59.8397V33.872H56.083V30.1168H52.3264V26.3616V22.6064V18.8512V15.096V11.3408V7.55216V3.77191H48.5697V0H29.8447V3.81363H26.088V7.51043H22.3314V11.2072H18.6498V14.9291H14.9015V18.5925H11.2617V22.5563H7.51336V26.3032H3.74833V30.0584H0V49.2351H3.79842V53.007H30.2287V56.6203H33.9353V60.3255H37.6419V64.0306H41.3485V67.7357H45.0801V71.4409H48.7951V75.146H52.4015V108.592H56.0997V116.103H59.8731V119.758H63.5964V123.505H74.833V119.783H78.5563V116.061H82.288V112.339H86.0446V108.618H89.8097V104.946H97.4065V108.701H101.163V112.456H104.92V116.211H108.677V119.967H112.433V123.722H116.19V127.477H119.947V131.232H123.703V134.987H127.46V138.743H131.217V142.498H134.973V146.253H138.73V150.008H150V138.743L146.243 138.734ZM48.8786 60.4006H45.1219V56.6871H41.3986V52.9652H37.6753V49.2351H33.9604V45.5216H30.2371V41.8081H26.5138V38.0862H22.8406V41.7914H19.0839V38.0362H22.7905V34.331H26.4971V30.6259H30.2538V34.331H33.9938V38.0862V45.4882H37.7171V49.2351H41.432V52.9569H45.1553V56.6704H48.8786V60.4006ZM56.3168 67.8442H52.5935V64.089H56.3502L56.3168 67.8442ZM63.7634 75.2796H60.0067V71.5243H63.7634V75.2796Z" fill="black"/>
</svg>
